# xmcd CD database file
#
# Track frame offsets:
#	150
#	9802
#	21839
#	37434
#	49775
#	63657
#	78078
#	86810
#	96123
#	104020
#	123360
#	137440
#	149538
#	158652
#
# Disc length: 2214 seconds
#
# Revision: 1
# Processed by: cddbd v1.5.2PL0 Copyright (c) Steve Scherf et al.
# Submitted via: CDex 1.70beta2
#
DISCID=b908a40e
DTITLE=Raphael Gualazzi - Love Outside The Window
DYEAR=2011
DGENRE=Jazz
TTITLE0=A Simple Song
TTITLE1=A Song For Your Soul
TTITLE2=Besame Mucho
TTITLE3=A Devil Crying
TTITLE4=Escape
TTITLE5=A French Cartoon
TTITLE6=Georgia On My Mind
TTITLE7=Jameson's Lament
TTITLE8=Peace
TTITLE9=Summertime from "Porgy and Bess"
TTITLE10=Crazy Rag Blues
TTITLE11=Crying Laughing
TTITLE12=Love Outside The Window
TTITLE13=Sweet Fucking Blues
EXTD=YEAR: 2011
EXTT0=
EXTT1=
EXTT2=
EXTT3=
EXTT4=
EXTT5=
EXTT6=
EXTT7=
EXTT8=
EXTT9=
EXTT10=
EXTT11=
EXTT12=
EXTT13=
PLAYORDER=
